<?xml version="1.0" encoding="UTF-8" standalone="no"?>
<svg
   xmlns="http://www.w3.org/2000/svg"
   version="1.1"
   viewBox="0 0 144 144"
   height="144"
   width="144">
  <g>
    <rect
       y="0"
       x="0"
       height="144"
       width="144"
       style="fill:#0055aa" />
    <rect
       ry="8"
       rx="8"
       y="40"
       x="26"
       height="64"
       width="92"
       style="fill:#ffffff;stroke:#000000;stroke-width:8" />
    <circle
       r="17"
       cy="72"
       cx="72"
       style="fill:#d2d2d2;stroke:#000000;stroke-width:4" />
    <circle
       r="7"
       cy="84"
       cx="42"
       style="fill:#d2d2d2;stroke:#000000;stroke-width:3" />
    <circle
       r="7"
       cy="60"
       cx="42"
       style="fill:#d2d2d2;stroke:#000000;stroke-width:3" />
    <rect
       ry="2"
       rx="2"
       y="51"
       x="104.5"
       height="20"
       width="5"
       style="fill:#000000" />
    <rect
       ry="2"
       rx="2"
       y="51"
       x="106"
       height="42"
       width="4"
       style="fill:#000000" />
    <rect
       y="60"
       x="94"
       height="2"
       width="8"
       style="fill:#000000" />
    <rect
       ry="2"
       rx="2"
       y="62"
       x="96"
       height="31"
       width="4"
       style="fill:#000000" />
    <rect
       ry="0.75"
       rx="0.75"
       y="51"
       x="94"
       height="11"
       width="1.6"
       style="fill:#000000" />
    <rect
       ry="0.75"
       rx="0.75"
       y="51"
       x="97.2"
       height="11"
       width="1.6"
       style="fill:#000000" />
    <rect
       ry="0.75"
       rx="0.75"
       y="51"
       x="100.4"
       height="11"
       width="1.6"
       style="fill:#000000" />
    <rect
       ry="2"
       rx="2"
       y="60"
       x="94"
       height="4"
       width="8"
       style="fill:#000000" />
  </g>
</svg>
